<svg xmlns="http://www.w3.org/2000/svg" viewBox="0 0 512 512" width="100%" height="100%">
  <defs>
    <linearGradient id="grad1" x1="0%" y1="0%" x2="100%" y2="100%">
      <stop offset="0%" stop-color="#4caf50" />
      <stop offset="100%" stop-color="#2e7d32" />
    </linearGradient>
    <linearGradient id="grad2" x1="0%" y1="0%" x2="100%" y2="100%">
      <stop offset="0%" stop-color="#81c784" />
      <stop offset="100%" stop-color="#4caf50" />
    </linearGradient>
    <filter id="shadow" x="-10%" y="-10%" width="130%" height="130%">
      <feDropShadow dx="0" dy="16" stdDeviation="16" flood-color="#1b5e20" flood-opacity="0.15" />
    </filter>
  </defs>
  <circle cx="256" cy="256" r="220" fill="url(#grad2)" opacity="0.08" />
  <g filter="url(#shadow)">
    <rect x="64" y="64" width="384" height="384" rx="96" fill="white" />
    <path d="M 280 140 C 310 100, 360 100, 380 120 C 380 150, 350 200, 280 200 Z" fill="url(#grad2)" />
    <path d="M 256 200 Q 270 170 285 155" stroke="#5d4037" stroke-width="12" stroke-linecap="round" fill="none" />
    <path d="M 256 210 C 210 190, 140 190, 130 250 C 120 310, 150 380, 220 400 C 240 405, 250 395, 256 395 C 262 395, 272 405, 292 400 C 362 380, 392 310, 382 250 C 372 190, 302 190, 256 210 Z" fill="url(#grad1)" />
    <path d="M 160 260 A 60 60 0 0 1 200 210" stroke="white" stroke-width="8" stroke-linecap="round" fill="none" opacity="0.3" />
  </g>
</svg>